<svg xmlns="http://www.w3.org/2000/svg" xmlns:xlink="http://www.w3.org/1999/xlink" width="500" zoomAndPan="magnify" viewBox="0 0 375 374.999991" height="500" preserveAspectRatio="xMidYMid meet" version="1.0"><defs><g/><clipPath id="8bab4b40b6"><path d="M 140.113281 111.164062 L 232.097656 111.164062 L 232.097656 215.074219 L 140.113281 215.074219 Z M 140.113281 111.164062 " clip-rule="nonzero"/></clipPath></defs><g clip-path="url(#8bab4b40b6)"><path fill="#0157fe" d="M 209.898438 160.515625 C 209.378906 160.515625 208.957031 160.089844 208.957031 159.570312 C 208.957031 154.964844 205.921875 151.222656 202.195312 151.222656 C 198.46875 151.222656 195.4375 154.964844 195.4375 159.570312 C 195.4375 160.089844 195.015625 160.515625 194.492188 160.515625 C 193.96875 160.515625 193.546875 160.089844 193.546875 159.570312 C 193.546875 153.925781 197.425781 149.332031 202.195312 149.332031 C 206.964844 149.332031 210.84375 153.925781 210.84375 159.570312 C 210.84375 160.089844 210.421875 160.515625 209.898438 160.515625 Z M 175.921875 169.214844 C 176.441406 169.214844 176.867188 169.636719 176.867188 170.160156 C 176.867188 175.871094 180.648438 180.519531 185.300781 180.519531 C 189.953125 180.519531 193.738281 175.871094 193.738281 170.160156 C 193.738281 169.636719 194.160156 169.214844 194.683594 169.214844 C 195.203125 169.214844 195.628906 169.636719 195.628906 170.160156 C 195.628906 176.914062 190.996094 182.410156 185.300781 182.410156 C 179.609375 182.410156 174.976562 176.914062 174.976562 170.160156 C 174.976562 169.636719 175.398438 169.214844 175.921875 169.214844 Z M 160.957031 159.570312 C 160.957031 160.089844 160.535156 160.515625 160.011719 160.515625 C 159.488281 160.515625 159.066406 160.089844 159.066406 159.570312 C 159.066406 153.925781 162.945312 149.332031 167.714844 149.332031 C 172.484375 149.332031 176.363281 153.925781 176.363281 159.570312 C 176.363281 160.089844 175.941406 160.515625 175.417969 160.515625 C 174.898438 160.515625 174.476562 160.089844 174.476562 159.570312 C 174.476562 154.964844 171.441406 151.222656 167.714844 151.222656 C 163.988281 151.222656 160.957031 154.964844 160.957031 159.570312 Z M 221.695312 132.738281 L 224.542969 122.699219 C 224.828125 122.742188 225.117188 122.769531 225.414062 122.769531 C 225.609375 122.769531 225.808594 122.761719 226.007812 122.742188 C 227.566406 122.585938 228.96875 121.832031 229.953125 120.621094 C 230.933594 119.425781 231.382812 117.917969 231.226562 116.382812 C 230.902344 113.199219 228.035156 110.875 224.832031 111.195312 C 223.273438 111.351562 221.871094 112.105469 220.882812 113.3125 C 219.90625 114.511719 219.453125 116.019531 219.609375 117.554688 C 219.816406 119.574219 221.050781 121.25 222.746094 122.121094 L 219.839844 132.359375 C 219.207031 132.273438 218.5625 132.226562 217.910156 132.226562 L 154.296875 132.226562 C 153.945312 132.226562 153.59375 132.242188 153.246094 132.269531 L 150.363281 122.121094 C 152.058594 121.25 153.292969 119.574219 153.5 117.554688 C 153.65625 116.019531 153.203125 114.511719 152.226562 113.3125 C 151.238281 112.105469 149.835938 111.351562 148.277344 111.195312 C 145.078125 110.871094 142.203125 113.199219 141.878906 116.382812 C 141.722656 117.917969 142.175781 119.425781 143.152344 120.625 C 144.140625 121.832031 145.542969 122.585938 147.101562 122.742188 C 147.300781 122.761719 147.496094 122.769531 147.695312 122.769531 C 147.988281 122.769531 148.277344 122.742188 148.5625 122.699219 L 151.355469 132.53125 C 144.941406 133.882812 140.113281 139.546875 140.113281 146.3125 L 140.113281 184.335938 C 140.113281 191.757812 145.980469 197.847656 153.355469 198.265625 L 153.355469 213.503906 C 153.355469 214.128906 153.726562 214.695312 154.300781 214.945312 C 154.503906 215.03125 154.71875 215.074219 154.933594 215.074219 C 155.324219 215.074219 155.710938 214.929688 156.003906 214.65625 L 172.707031 199.273438 C 173.445312 198.640625 174.390625 198.289062 175.367188 198.289062 L 217.910156 198.289062 C 225.730469 198.289062 232.09375 191.972656 232.09375 184.203125 L 232.09375 146.3125 C 232.09375 139.847656 227.683594 134.386719 221.695312 132.738281 " fill-opacity="1" fill-rule="nonzero"/></g><g fill="#000000" fill-opacity="1"><g transform="translate(125.086278, 242.175716)"><g><path d="M 9.34375 0.171875 C 7.769531 0.171875 6.367188 -0.164062 5.140625 -0.84375 C 3.921875 -1.519531 2.960938 -2.453125 2.265625 -3.640625 C 1.566406 -4.828125 1.21875 -6.175781 1.21875 -7.6875 C 1.21875 -9.195312 1.566406 -10.546875 2.265625 -11.734375 C 2.960938 -12.921875 3.921875 -13.847656 5.140625 -14.515625 C 6.367188 -15.179688 7.769531 -15.515625 9.34375 -15.515625 C 10.726562 -15.515625 11.96875 -15.234375 13.0625 -14.671875 C 14.15625 -14.109375 15.003906 -13.296875 15.609375 -12.234375 L 13.484375 -10.875 C 13.003906 -11.613281 12.40625 -12.164062 11.6875 -12.53125 C 10.96875 -12.894531 10.175781 -13.078125 9.3125 -13.078125 C 8.300781 -13.078125 7.394531 -12.851562 6.59375 -12.40625 C 5.789062 -11.96875 5.160156 -11.335938 4.703125 -10.515625 C 4.253906 -9.691406 4.03125 -8.75 4.03125 -7.6875 C 4.03125 -6.601562 4.253906 -5.648438 4.703125 -4.828125 C 5.160156 -4.003906 5.789062 -3.367188 6.59375 -2.921875 C 7.394531 -2.484375 8.300781 -2.265625 9.3125 -2.265625 C 10.175781 -2.265625 10.96875 -2.445312 11.6875 -2.8125 C 12.40625 -3.175781 13.003906 -3.726562 13.484375 -4.46875 L 15.609375 -3.125 C 15.003906 -2.0625 14.15625 -1.242188 13.0625 -0.671875 C 11.96875 -0.109375 10.726562 0.171875 9.34375 0.171875 Z M 9.34375 0.171875 "/></g></g></g><g fill="#000000" fill-opacity="1"><g transform="translate(141.640808, 242.175716)"><g><path d="M 10.84375 -15.515625 C 12.800781 -15.515625 14.351562 -14.945312 15.5 -13.8125 C 16.644531 -12.6875 17.21875 -11.03125 17.21875 -8.84375 L 17.21875 0 L 14.4375 0 L 14.4375 -8.53125 C 14.4375 -10.019531 14.078125 -11.140625 13.359375 -11.890625 C 12.648438 -12.640625 11.628906 -13.015625 10.296875 -13.015625 C 8.785156 -13.015625 7.59375 -12.570312 6.71875 -11.6875 C 5.851562 -10.8125 5.421875 -9.554688 5.421875 -7.921875 L 5.421875 0 L 2.640625 0 L 2.640625 -21.515625 L 5.421875 -21.515625 L 5.421875 -13.1875 C 6.003906 -13.925781 6.765625 -14.5 7.703125 -14.90625 C 8.640625 -15.3125 9.6875 -15.515625 10.84375 -15.515625 Z M 10.84375 -15.515625 "/></g></g></g><g fill="#000000" fill-opacity="1"><g transform="translate(161.384474, 242.175716)"><g><path d="M 2.640625 -15.375 L 5.421875 -15.375 L 5.421875 0 L 2.640625 0 Z M 4.03125 -18.328125 C 3.488281 -18.328125 3.039062 -18.5 2.6875 -18.84375 C 2.332031 -19.195312 2.15625 -19.625 2.15625 -20.125 C 2.15625 -20.625 2.332031 -21.050781 2.6875 -21.40625 C 3.039062 -21.769531 3.488281 -21.953125 4.03125 -21.953125 C 4.570312 -21.953125 5.019531 -21.78125 5.375 -21.4375 C 5.738281 -21.101562 5.921875 -20.6875 5.921875 -20.1875 C 5.921875 -19.664062 5.738281 -19.222656 5.375 -18.859375 C 5.019531 -18.503906 4.570312 -18.328125 4.03125 -18.328125 Z M 4.03125 -18.328125 "/></g></g></g><g fill="#000000" fill-opacity="1"><g transform="translate(169.473295, 242.175716)"><g><path d="M 11.28125 -0.90625 C 10.875 -0.550781 10.367188 -0.28125 9.765625 -0.09375 C 9.171875 0.0820312 8.554688 0.171875 7.921875 0.171875 C 6.367188 0.171875 5.164062 -0.238281 4.3125 -1.0625 C 3.46875 -1.894531 3.046875 -3.085938 3.046875 -4.640625 L 3.046875 -13.078125 L 0.4375 -13.078125 L 0.4375 -15.375 L 3.046875 -15.375 L 3.046875 -18.734375 L 5.828125 -18.734375 L 5.828125 -15.375 L 10.234375 -15.375 L 10.234375 -13.078125 L 5.828125 -13.078125 L 5.828125 -4.75 C 5.828125 -3.925781 6.035156 -3.289062 6.453125 -2.84375 C 6.867188 -2.394531 7.460938 -2.171875 8.234375 -2.171875 C 9.085938 -2.171875 9.8125 -2.414062 10.40625 -2.90625 Z M 11.28125 -0.90625 "/></g></g></g><g fill="#000000" fill-opacity="1"><g transform="translate(181.476052, 242.175716)"><g><path d="M 9.34375 0.171875 C 7.769531 0.171875 6.367188 -0.164062 5.140625 -0.84375 C 3.921875 -1.519531 2.960938 -2.453125 2.265625 -3.640625 C 1.566406 -4.828125 1.21875 -6.175781 1.21875 -7.6875 C 1.21875 -9.195312 1.566406 -10.546875 2.265625 -11.734375 C 2.960938 -12.921875 3.921875 -13.847656 5.140625 -14.515625 C 6.367188 -15.179688 7.769531 -15.515625 9.34375 -15.515625 C 10.726562 -15.515625 11.96875 -15.234375 13.0625 -14.671875 C 14.15625 -14.109375 15.003906 -13.296875 15.609375 -12.234375 L 13.484375 -10.875 C 13.003906 -11.613281 12.40625 -12.164062 11.6875 -12.53125 C 10.96875 -12.894531 10.175781 -13.078125 9.3125 -13.078125 C 8.300781 -13.078125 7.394531 -12.851562 6.59375 -12.40625 C 5.789062 -11.96875 5.160156 -11.335938 4.703125 -10.515625 C 4.253906 -9.691406 4.03125 -8.75 4.03125 -7.6875 C 4.03125 -6.601562 4.253906 -5.648438 4.703125 -4.828125 C 5.160156 -4.003906 5.789062 -3.367188 6.59375 -2.921875 C 7.394531 -2.484375 8.300781 -2.265625 9.3125 -2.265625 C 10.175781 -2.265625 10.96875 -2.445312 11.6875 -2.8125 C 12.40625 -3.175781 13.003906 -3.726562 13.484375 -4.46875 L 15.609375 -3.125 C 15.003906 -2.0625 14.15625 -1.242188 13.0625 -0.671875 C 11.96875 -0.109375 10.726562 0.171875 9.34375 0.171875 Z M 9.34375 0.171875 "/></g></g></g><g fill="#000000" fill-opacity="1"><g transform="translate(198.030582, 242.175716)"><g><path d="M 10.84375 -15.515625 C 12.800781 -15.515625 14.351562 -14.945312 15.5 -13.8125 C 16.644531 -12.6875 17.21875 -11.03125 17.21875 -8.84375 L 17.21875 0 L 14.4375 0 L 14.4375 -8.53125 C 14.4375 -10.019531 14.078125 -11.140625 13.359375 -11.890625 C 12.648438 -12.640625 11.628906 -13.015625 10.296875 -13.015625 C 8.785156 -13.015625 7.59375 -12.570312 6.71875 -11.6875 C 5.851562 -10.8125 5.421875 -9.554688 5.421875 -7.921875 L 5.421875 0 L 2.640625 0 L 2.640625 -21.515625 L 5.421875 -21.515625 L 5.421875 -13.1875 C 6.003906 -13.925781 6.765625 -14.5 7.703125 -14.90625 C 8.640625 -15.3125 9.6875 -15.515625 10.84375 -15.515625 Z M 10.84375 -15.515625 "/></g></g></g><g fill="#000000" fill-opacity="1"><g transform="translate(217.774248, 242.175716)"><g><path d="M 8.234375 -15.515625 C 10.359375 -15.515625 11.984375 -14.992188 13.109375 -13.953125 C 14.242188 -12.910156 14.8125 -11.351562 14.8125 -9.28125 L 14.8125 0 L 12.1875 0 L 12.1875 -2.03125 C 11.71875 -1.3125 11.050781 -0.765625 10.1875 -0.390625 C 9.332031 -0.015625 8.316406 0.171875 7.140625 0.171875 C 5.410156 0.171875 4.03125 -0.238281 3 -1.0625 C 1.96875 -1.894531 1.453125 -2.988281 1.453125 -4.34375 C 1.453125 -5.695312 1.941406 -6.785156 2.921875 -7.609375 C 3.910156 -8.429688 5.476562 -8.84375 7.625 -8.84375 L 12.03125 -8.84375 L 12.03125 -9.390625 C 12.03125 -10.585938 11.679688 -11.503906 10.984375 -12.140625 C 10.296875 -12.785156 9.273438 -13.109375 7.921875 -13.109375 C 7.003906 -13.109375 6.109375 -12.957031 5.234375 -12.65625 C 4.367188 -12.351562 3.640625 -11.953125 3.046875 -11.453125 L 1.890625 -13.546875 C 2.679688 -14.179688 3.625 -14.664062 4.71875 -15 C 5.820312 -15.34375 6.992188 -15.515625 8.234375 -15.515625 Z M 7.59375 -1.96875 C 8.65625 -1.96875 9.570312 -2.203125 10.34375 -2.671875 C 11.125 -3.148438 11.6875 -3.828125 12.03125 -4.703125 L 12.03125 -6.84375 L 7.75 -6.84375 C 5.382812 -6.84375 4.203125 -6.050781 4.203125 -4.46875 C 4.203125 -3.695312 4.5 -3.085938 5.09375 -2.640625 C 5.695312 -2.191406 6.53125 -1.96875 7.59375 -1.96875 Z M 7.59375 -1.96875 "/></g></g></g><g fill="#000000" fill-opacity="1"><g transform="translate(235.111566, 242.175716)"><g><path d="M 11.28125 -0.90625 C 10.875 -0.550781 10.367188 -0.28125 9.765625 -0.09375 C 9.171875 0.0820312 8.554688 0.171875 7.921875 0.171875 C 6.367188 0.171875 5.164062 -0.238281 4.3125 -1.0625 C 3.46875 -1.894531 3.046875 -3.085938 3.046875 -4.640625 L 3.046875 -13.078125 L 0.4375 -13.078125 L 0.4375 -15.375 L 3.046875 -15.375 L 3.046875 -18.734375 L 5.828125 -18.734375 L 5.828125 -15.375 L 10.234375 -15.375 L 10.234375 -13.078125 L 5.828125 -13.078125 L 5.828125 -4.75 C 5.828125 -3.925781 6.035156 -3.289062 6.453125 -2.84375 C 6.867188 -2.394531 7.460938 -2.171875 8.234375 -2.171875 C 9.085938 -2.171875 9.8125 -2.414062 10.40625 -2.90625 Z M 11.28125 -0.90625 "/></g></g></g><g fill="#0157fe" fill-opacity="1"><g transform="translate(186.291569, 260.555138)"><g><path d="M 9.203125 0 L 9.1875 -6.21875 L 6.109375 -1.03125 L 5.546875 -1.03125 L 2.453125 -6.1875 L 2.453125 0 L 1.28125 0 L 1.28125 -8.546875 L 2.28125 -8.546875 L 5.84375 -2.53125 L 9.359375 -8.546875 L 10.359375 -8.546875 L 10.375 0 Z M 9.203125 0 "/></g></g></g><g fill="#0157fe" fill-opacity="1"><g transform="translate(197.941825, 260.555138)"><g><path d="M 3.875 0.078125 C 3.238281 0.078125 2.660156 -0.0625 2.140625 -0.34375 C 1.628906 -0.632812 1.226562 -1.03125 0.9375 -1.53125 C 0.65625 -2.03125 0.515625 -2.597656 0.515625 -3.234375 C 0.515625 -3.867188 0.65625 -4.4375 0.9375 -4.9375 C 1.226562 -5.4375 1.628906 -5.828125 2.140625 -6.109375 C 2.660156 -6.390625 3.238281 -6.53125 3.875 -6.53125 C 4.519531 -6.53125 5.097656 -6.390625 5.609375 -6.109375 C 6.117188 -5.828125 6.515625 -5.4375 6.796875 -4.9375 C 7.085938 -4.4375 7.234375 -3.867188 7.234375 -3.234375 C 7.234375 -2.597656 7.085938 -2.03125 6.796875 -1.53125 C 6.515625 -1.03125 6.117188 -0.632812 5.609375 -0.34375 C 5.097656 -0.0625 4.519531 0.078125 3.875 0.078125 Z M 3.875 -0.953125 C 4.289062 -0.953125 4.660156 -1.046875 4.984375 -1.234375 C 5.316406 -1.429688 5.578125 -1.703125 5.765625 -2.046875 C 5.953125 -2.390625 6.046875 -2.785156 6.046875 -3.234375 C 6.046875 -3.679688 5.953125 -4.078125 5.765625 -4.421875 C 5.578125 -4.765625 5.316406 -5.03125 4.984375 -5.21875 C 4.660156 -5.40625 4.289062 -5.5 3.875 -5.5 C 3.46875 -5.5 3.097656 -5.40625 2.765625 -5.21875 C 2.429688 -5.03125 2.171875 -4.765625 1.984375 -4.421875 C 1.796875 -4.078125 1.703125 -3.679688 1.703125 -3.234375 C 1.703125 -2.785156 1.796875 -2.390625 1.984375 -2.046875 C 2.171875 -1.703125 2.429688 -1.429688 2.765625 -1.234375 C 3.097656 -1.046875 3.46875 -0.953125 3.875 -0.953125 Z M 3.875 -0.953125 "/></g></g></g><g fill="#0157fe" fill-opacity="1"><g transform="translate(205.688331, 260.555138)"><g><path d="M 4.546875 -6.53125 C 5.171875 -6.53125 5.726562 -6.390625 6.21875 -6.109375 C 6.71875 -5.835938 7.109375 -5.453125 7.390625 -4.953125 C 7.671875 -4.453125 7.8125 -3.878906 7.8125 -3.234375 C 7.8125 -2.578125 7.671875 -2 7.390625 -1.5 C 7.109375 -1 6.71875 -0.609375 6.21875 -0.328125 C 5.726562 -0.0546875 5.171875 0.078125 4.546875 0.078125 C 4.054688 0.078125 3.613281 -0.015625 3.21875 -0.203125 C 2.820312 -0.390625 2.492188 -0.664062 2.234375 -1.03125 L 2.234375 0 L 1.109375 0 L 1.109375 -9.0625 L 2.28125 -9.0625 L 2.28125 -5.484375 C 2.539062 -5.828125 2.863281 -6.085938 3.25 -6.265625 C 3.644531 -6.441406 4.078125 -6.53125 4.546875 -6.53125 Z M 4.4375 -0.953125 C 4.851562 -0.953125 5.222656 -1.046875 5.546875 -1.234375 C 5.878906 -1.429688 6.140625 -1.703125 6.328125 -2.046875 C 6.523438 -2.390625 6.625 -2.785156 6.625 -3.234375 C 6.625 -3.679688 6.523438 -4.078125 6.328125 -4.421875 C 6.140625 -4.765625 5.878906 -5.03125 5.546875 -5.21875 C 5.222656 -5.40625 4.851562 -5.5 4.4375 -5.5 C 4.03125 -5.5 3.660156 -5.40625 3.328125 -5.21875 C 2.992188 -5.03125 2.734375 -4.765625 2.546875 -4.421875 C 2.359375 -4.078125 2.265625 -3.679688 2.265625 -3.234375 C 2.265625 -2.785156 2.359375 -2.390625 2.546875 -2.046875 C 2.734375 -1.703125 2.992188 -1.429688 3.328125 -1.234375 C 3.660156 -1.046875 4.03125 -0.953125 4.4375 -0.953125 Z M 4.4375 -0.953125 "/></g></g></g><g fill="#0157fe" fill-opacity="1"><g transform="translate(214.008196, 260.555138)"><g><path d="M 1.109375 -6.46875 L 2.28125 -6.46875 L 2.28125 0 L 1.109375 0 Z M 1.703125 -7.71875 C 1.472656 -7.71875 1.28125 -7.789062 1.125 -7.9375 C 0.976562 -8.082031 0.90625 -8.257812 0.90625 -8.46875 C 0.90625 -8.675781 0.976562 -8.851562 1.125 -9 C 1.28125 -9.15625 1.472656 -9.234375 1.703125 -9.234375 C 1.929688 -9.234375 2.117188 -9.160156 2.265625 -9.015625 C 2.410156 -8.878906 2.484375 -8.707031 2.484375 -8.5 C 2.484375 -8.269531 2.410156 -8.082031 2.265625 -7.9375 C 2.117188 -7.789062 1.929688 -7.71875 1.703125 -7.71875 Z M 1.703125 -7.71875 "/></g></g></g><g fill="#0157fe" fill-opacity="1"><g transform="translate(217.411783, 260.555138)"><g><path d="M 1.109375 -9.0625 L 2.28125 -9.0625 L 2.28125 0 L 1.109375 0 Z M 1.109375 -9.0625 "/></g></g></g><g fill="#0157fe" fill-opacity="1"><g transform="translate(220.815371, 260.555138)"><g><path d="M 6.953125 -3.203125 C 6.953125 -3.109375 6.945312 -2.988281 6.9375 -2.84375 L 1.6875 -2.84375 C 1.757812 -2.269531 2.007812 -1.8125 2.4375 -1.46875 C 2.863281 -1.125 3.394531 -0.953125 4.03125 -0.953125 C 4.800781 -0.953125 5.421875 -1.210938 5.890625 -1.734375 L 6.546875 -0.96875 C 6.253906 -0.632812 5.890625 -0.375 5.453125 -0.1875 C 5.015625 -0.0078125 4.523438 0.078125 3.984375 0.078125 C 3.304688 0.078125 2.703125 -0.0625 2.171875 -0.34375 C 1.640625 -0.625 1.226562 -1.015625 0.9375 -1.515625 C 0.65625 -2.023438 0.515625 -2.597656 0.515625 -3.234375 C 0.515625 -3.859375 0.65625 -4.421875 0.9375 -4.921875 C 1.21875 -5.429688 1.601562 -5.828125 2.09375 -6.109375 C 2.582031 -6.390625 3.140625 -6.53125 3.765625 -6.53125 C 4.378906 -6.53125 4.925781 -6.390625 5.40625 -6.109375 C 5.894531 -5.828125 6.273438 -5.429688 6.546875 -4.921875 C 6.816406 -4.421875 6.953125 -3.847656 6.953125 -3.203125 Z M 3.765625 -5.546875 C 3.203125 -5.546875 2.726562 -5.375 2.34375 -5.03125 C 1.96875 -4.6875 1.75 -4.238281 1.6875 -3.6875 L 5.828125 -3.6875 C 5.765625 -4.226562 5.539062 -4.671875 5.15625 -5.015625 C 4.78125 -5.367188 4.316406 -5.546875 3.765625 -5.546875 Z M 3.765625 -5.546875 "/></g></g></g><g fill="#0157fe" fill-opacity="1"><g transform="translate(228.28129, 260.555138)"><g/></g></g><g fill="#0157fe" fill-opacity="1"><g transform="translate(231.562883, 260.555138)"><g><path d="M 6.71875 -2.140625 L 2.1875 -2.140625 L 1.25 0 L -0.015625 0 L 3.859375 -8.546875 L 5.0625 -8.546875 L 8.9375 0 L 7.65625 0 Z M 6.296875 -3.109375 L 4.453125 -7.296875 L 2.609375 -3.109375 Z M 6.296875 -3.109375 "/></g></g></g><g fill="#0157fe" fill-opacity="1"><g transform="translate(240.492718, 260.555138)"><g><path d="M 4.546875 -6.53125 C 5.171875 -6.53125 5.726562 -6.390625 6.21875 -6.109375 C 6.71875 -5.835938 7.109375 -5.453125 7.390625 -4.953125 C 7.671875 -4.453125 7.8125 -3.878906 7.8125 -3.234375 C 7.8125 -2.578125 7.671875 -2 7.390625 -1.5 C 7.109375 -1 6.71875 -0.609375 6.21875 -0.328125 C 5.726562 -0.0546875 5.171875 0.078125 4.546875 0.078125 C 4.078125 0.078125 3.648438 -0.0078125 3.265625 -0.1875 C 2.878906 -0.375 2.550781 -0.632812 2.28125 -0.96875 L 2.28125 2.375 L 1.109375 2.375 L 1.109375 -6.46875 L 2.234375 -6.46875 L 2.234375 -5.4375 C 2.492188 -5.800781 2.820312 -6.070312 3.21875 -6.25 C 3.613281 -6.4375 4.054688 -6.53125 4.546875 -6.53125 Z M 4.4375 -0.953125 C 4.851562 -0.953125 5.222656 -1.046875 5.546875 -1.234375 C 5.878906 -1.429688 6.140625 -1.703125 6.328125 -2.046875 C 6.523438 -2.390625 6.625 -2.785156 6.625 -3.234375 C 6.625 -3.679688 6.523438 -4.078125 6.328125 -4.421875 C 6.140625 -4.765625 5.878906 -5.03125 5.546875 -5.21875 C 5.222656 -5.40625 4.851562 -5.5 4.4375 -5.5 C 4.03125 -5.5 3.660156 -5.40625 3.328125 -5.21875 C 3.003906 -5.03125 2.742188 -4.765625 2.546875 -4.421875 C 2.359375 -4.078125 2.265625 -3.679688 2.265625 -3.234375 C 2.265625 -2.785156 2.359375 -2.390625 2.546875 -2.046875 C 2.734375 -1.703125 2.992188 -1.429688 3.328125 -1.234375 C 3.660156 -1.046875 4.03125 -0.953125 4.4375 -0.953125 Z M 4.4375 -0.953125 "/></g></g></g><g fill="#0157fe" fill-opacity="1"><g transform="translate(248.812584, 260.555138)"><g><path d="M 4.546875 -6.53125 C 5.171875 -6.53125 5.726562 -6.390625 6.21875 -6.109375 C 6.71875 -5.835938 7.109375 -5.453125 7.390625 -4.953125 C 7.671875 -4.453125 7.8125 -3.878906 7.8125 -3.234375 C 7.8125 -2.578125 7.671875 -2 7.390625 -1.5 C 7.109375 -1 6.71875 -0.609375 6.21875 -0.328125 C 5.726562 -0.0546875 5.171875 0.078125 4.546875 0.078125 C 4.078125 0.078125 3.648438 -0.0078125 3.265625 -0.1875 C 2.878906 -0.375 2.550781 -0.632812 2.28125 -0.96875 L 2.28125 2.375 L 1.109375 2.375 L 1.109375 -6.46875 L 2.234375 -6.46875 L 2.234375 -5.4375 C 2.492188 -5.800781 2.820312 -6.070312 3.21875 -6.25 C 3.613281 -6.4375 4.054688 -6.53125 4.546875 -6.53125 Z M 4.4375 -0.953125 C 4.851562 -0.953125 5.222656 -1.046875 5.546875 -1.234375 C 5.878906 -1.429688 6.140625 -1.703125 6.328125 -2.046875 C 6.523438 -2.390625 6.625 -2.785156 6.625 -3.234375 C 6.625 -3.679688 6.523438 -4.078125 6.328125 -4.421875 C 6.140625 -4.765625 5.878906 -5.03125 5.546875 -5.21875 C 5.222656 -5.40625 4.851562 -5.5 4.4375 -5.5 C 4.03125 -5.5 3.660156 -5.40625 3.328125 -5.21875 C 3.003906 -5.03125 2.742188 -4.765625 2.546875 -4.421875 C 2.359375 -4.078125 2.265625 -3.679688 2.265625 -3.234375 C 2.265625 -2.785156 2.359375 -2.390625 2.546875 -2.046875 C 2.734375 -1.703125 2.992188 -1.429688 3.328125 -1.234375 C 3.660156 -1.046875 4.03125 -0.953125 4.4375 -0.953125 Z M 4.4375 -0.953125 "/></g></g></g></svg>